NotoSerif-CondensedBold.ufo
<glyph name="uni0191" format="2">
  <advance width="647"/>
  <unicode hex="0191"/>
  <anchor x="161" y="-10" name="bottom"/>
  <anchor x="379" y="714" name="top"/>
  <anchor x="643" y="714" name="topright"/>
  <outline>
    <contour>
      <point x="161" y="-10" type="curve" smooth="yes"/>
      <point x="301" y="-10"/>
      <point x="370" y="60"/>
      <point x="370" y="186" type="curve" smooth="yes"/>
      <point x="370" y="339" type="line"/>
      <point x="566" y="339" type="line"/>
      <point x="566" y="402" type="line"/>
      <point x="370" y="402" type="line"/>
      <point x="370" y="650" type="line"/>
      <point x="500" y="650" type="line" smooth="yes"/>
      <point x="521" y="650"/>
      <point x="546" y="632"/>
      <point x="551" y="577" type="curve" smooth="yes"/>
      <point x="555" y="527" type="line"/>
      <point x="624" y="527" type="line"/>
      <point x="620" y="714" type="line"/>
      <point x="127" y="714" type="line"/>
      <point x="127" y="658" type="line"/>
      <point x="169" y="658" type="line" smooth="yes"/>
      <point x="188" y="658"/>
      <point x="204" y="644"/>
      <point x="204" y="604" type="curve" smooth="yes"/>
      <point x="204" y="149" type="line" smooth="yes"/>
      <point x="204" y="83"/>
      <point x="183" y="54"/>
      <point x="142" y="54" type="curve" smooth="yes"/>
      <point x="100" y="54"/>
      <point x="76" y="93"/>
      <point x="76" y="180" type="curve"/>
      <point x="28" y="180"/>
      <point x="-11" y="160"/>
      <point x="-11" y="105" type="curve" smooth="yes"/>
      <point x="-11" y="39"/>
      <point x="41" y="-10"/>
    </contour>
  </outline>
</glyph>
<glyph name="florin" format="2">
  <advance width="421"/>
  <unicode hex="0192"/>
  <anchor x="123" y="-11" name="bottom"/>
  <anchor x="300" y="769" name="top"/>
  <anchor x="491" y="769" name="topright"/>
  <outline>
    <contour>
      <point x="123" y="-11" type="curve" smooth="yes"/>
      <point x="260" y="-11"/>
      <point x="308" y="73"/>
      <point x="308" y="189" type="curve" smooth="yes"/>
      <point x="308" y="462" type="line"/>
      <point x="421" y="462" type="line"/>
      <point x="421" y="536" type="line"/>
      <point x="308" y="536" type="line"/>
      <point x="308" y="590" type="line" smooth="yes"/>
      <point x="308" y="679"/>
      <point x="321" y="709"/>
      <point x="342" y="709" type="curve" smooth="yes"/>
      <point x="365" y="709"/>
      <point x="370" y="653"/>
      <point x="370" y="622" type="curve"/>
      <point x="460" y="622"/>
      <point x="479" y="657"/>
      <point x="479" y="695" type="curve" smooth="yes"/>
      <point x="479" y="730"/>
      <point x="456" y="769"/>
      <point x="332" y="769" type="curve" smooth="yes"/>
      <point x="195" y="769"/>
      <point x="146" y="695"/>
      <point x="146" y="569" type="curve" smooth="yes"/>
      <point x="146" y="536" type="line"/>
      <point x="73" y="536" type="line"/>
      <point x="73" y="462" type="line"/>
      <point x="146" y="462" type="line"/>
      <point x="146" y="168" type="line" smooth="yes"/>
      <point x="146" y="79"/>
      <point x="141" y="49"/>
      <point x="110" y="49" type="curve" smooth="yes"/>
      <point x="82" y="49"/>
      <point x="77" y="79"/>
      <point x="77" y="150" type="curve"/>
      <point x="14" y="150"/>
      <point x="-10" y="120"/>
      <point x="-10" y="75" type="curve" smooth="yes"/>
      <point x="-10" y="33"/>
      <point x="16" y="-11"/>
    </contour>
  </outline>
</glyph>
<glyph name="uni0488" format="2">
  <advance width="824"/>
  <unicode hex="0488"/>
  <outline>
    <contour>
      <point x="558" y="462" type="curve"/>
      <point x="589" y="462" type="line"/>
      <point x="593" y="501"/>
      <point x="610" y="505"/>
      <point x="643" y="505" type="curve" smooth="yes"/>
      <point x="671" y="505"/>
      <point x="694" y="499"/>
      <point x="698" y="462" type="curve"/>
      <point x="730" y="462" type="line"/>
      <point x="726" y="518"/>
      <point x="697" y="557"/>
      <point x="643" y="557" type="curve" smooth="yes"/>
      <point x="587" y="557"/>
      <point x="561" y="520"/>
    </contour>
    <contour>
      <point x="89" y="-20" type="curve"/>
      <point x="120" y="-20" type="line"/>
      <point x="124" y="19"/>
      <point x="141" y="23"/>
      <point x="174" y="23" type="curve" smooth="yes"/>
      <point x="201" y="23"/>
      <point x="225" y="17"/>
      <point x="229" y="-20" type="curve"/>
      <point x="261" y="-20" type="line"/>
      <point x="257" y="36"/>
      <point x="228" y="75"/>
      <point x="174" y="75" type="curve" smooth="yes"/>
      <point x="118" y="75"/>
      <point x="92" y="38"/>
    </contour>
    <contour>
      <point x="323" y="-156" type="curve"/>
      <point x="354" y="-156" type="line"/>
      <point x="357" y="-117"/>
      <point x="374" y="-113"/>
      <point x="407" y="-113" type="curve" smooth="yes"/>
      <point x="435" y="-113"/>
      <point x="458" y="-119"/>
      <point x="462" y="-156" type="curve"/>
      <point x="494" y="-156" type="line"/>
      <point x="491" y="-100"/>
      <point x="461" y="-61"/>
      <point x="407" y="-61" type="curve" smooth="yes"/>
      <point x="351" y="-61"/>
      <point x="325" y="-98"/>
    </contour>
    <contour>
      <point x="17" y="224" type="curve"/>
      <point x="47" y="224" type="line"/>
      <point x="51" y="263"/>
      <point x="68" y="267"/>
      <point x="101" y="267" type="curve" smooth="yes"/>
      <point x="130" y="267"/>
      <point x="153" y="261"/>
      <point x="156" y="224" type="curve"/>
      <point x="188" y="224" type="line"/>
      <point x="185" y="280"/>
      <point x="155" y="319"/>
      <point x="101" y="319" type="curve" smooth="yes"/>
      <point x="46" y="319"/>
      <point x="19" y="282"/>
    </contour>
    <contour>
      <point x="89" y="462" type="curve"/>
      <point x="120" y="462" type="line"/>
      <point x="124" y="501"/>
      <point x="141" y="505"/>
      <point x="174" y="505" type="curve" smooth="yes"/>
      <point x="201" y="505"/>
      <point x="225" y="499"/>
      <point x="229" y="462" type="curve"/>
      <point x="261" y="462" type="line"/>
      <point x="257" y="518"/>
      <point x="228" y="557"/>
      <point x="174" y="557" type="curve" smooth="yes"/>
      <point x="118" y="557"/>
      <point x="92" y="520"/>
    </contour>
    <contour>
      <point x="558" y="-20" type="curve"/>
      <point x="589" y="-20" type="line"/>
      <point x="593" y="19"/>
      <point x="610" y="23"/>
      <point x="643" y="23" type="curve" smooth="yes"/>
      <point x="671" y="23"/>
      <point x="694" y="17"/>
      <point x="698" y="-20" type="curve"/>
      <point x="730" y="-20" type="line"/>
      <point x="726" y="36"/>
      <point x="697" y="75"/>
      <point x="643" y="75" type="curve" smooth="yes"/>
      <point x="587" y="75"/>
      <point x="561" y="38"/>
    </contour>
    <contour>
      <point x="636" y="224" type="curve"/>
      <point x="667" y="224" type="line"/>
      <point x="670" y="263"/>
      <point x="688" y="267"/>
      <point x="721" y="267" type="curve" smooth="yes"/>
      <point x="749" y="267"/>
      <point x="772" y="261"/>
      <point x="775" y="224" type="curve"/>
      <point x="807" y="224" type="line"/>
      <point x="805" y="280"/>
      <point x="774" y="319"/>
      <point x="721" y="319" type="curve" smooth="yes"/>
      <point x="666" y="319"/>
      <point x="638" y="282"/>
    </contour>
    <contour>
      <point x="323" y="601" type="curve"/>
      <point x="354" y="601" type="line"/>
      <point x="357" y="640"/>
      <point x="374" y="644"/>
      <point x="407" y="644" type="curve" smooth="yes"/>
      <point x="435" y="644"/>
      <point x="458" y="638"/>
      <point x="462" y="601" type="curve"/>
      <point x="494" y="601" type="line"/>
      <point x="491" y="657"/>
      <point x="461" y="696"/>
      <point x="407" y="696" type="curve" smooth="yes"/>
      <point x="351" y="696"/>
      <point x="325" y="659"/>
    </contour>
  </outline>
</glyph>
<glyph name="uni1AB9" format="2">
  <unicode hex="1AB9"/>
  <anchor x="-383" y="79" name="_bottom"/>
  <anchor x="-383" y="-240" name="bottom"/>
  <outline>
    <contour>
      <point x="-390" y="-240" type="line"/>
      <point x="-307" y="26" type="line"/>
      <point x="-376" y="49" type="line"/>
      <point x="-459" y="-216" type="line"/>
    </contour>
  </outline>
</glyph>
<glyph name="uni1ABA" format="2">
  <unicode hex="1ABA"/>
  <anchor x="-393" y="24" name="_bottom"/>
  <anchor x="-393" y="-265" name="bottom"/>
  <outline>
    <contour>
      <point x="-378" y="-206" type="line"/>
      <point x="-306" y="-24" type="line"/>
      <point x="-376" y="-6" type="line"/>
      <point x="-448" y="-187" type="line"/>
    </contour>
    <contour>
      <point x="-419" y="-265" type="curve" smooth="yes"/>
      <point x="-384" y="-265"/>
      <point x="-359" y="-247"/>
      <point x="-359" y="-218" type="curve" smooth="yes"/>
      <point x="-359" y="-189"/>
      <point x="-384" y="-171"/>
      <point x="-419" y="-171" type="curve" smooth="yes"/>
      <point x="-454" y="-171"/>
      <point x="-479" y="-189"/>
      <point x="-479" y="-218" type="curve" smooth="yes"/>
      <point x="-479" y="-247"/>
      <point x="-454" y="-265"/>
    </contour>
  </outline>
</glyph>
<glyph name="uni1D09" format="2">
  <advance width="309"/>
  <unicode hex="1D09"/>
  <anchor x="155" y="-208" name="bottom"/>
  <anchor x="155" y="536" name="top"/>
  <outline>
    <contour>
      <point x="12" y="0" type="line"/>
      <point x="297" y="0" type="line"/>
      <point x="297" y="58" type="line"/>
      <point x="269" y="58" type="line" smooth="yes"/>
      <point x="246" y="58"/>
      <point x="233" y="70"/>
      <point x="233" y="106" type="curve" smooth="yes"/>
      <point x="233" y="430" type="line" smooth="yes"/>
      <point x="233" y="467"/>
      <point x="246" y="477"/>
      <point x="269" y="477" type="curve" smooth="yes"/>
      <point x="297" y="477" type="line"/>
      <point x="297" y="536" type="line"/>
      <point x="12" y="536" type="line"/>
      <point x="12" y="477" type="line"/>
      <point x="41" y="477" type="line" smooth="yes"/>
      <point x="62" y="477"/>
      <point x="76" y="467"/>
      <point x="76" y="430" type="curve" smooth="yes"/>
      <point x="76" y="106" type="line" smooth="yes"/>
      <point x="76" y="70"/>
      <point x="62" y="58"/>
      <point x="41" y="58" type="curve" smooth="yes"/>
      <point x="12" y="58" type="line"/>
    </contour>
    <contour>
      <point x="154" y="-208" type="curve" smooth="yes"/>
      <point x="202" y="-208"/>
      <point x="244" y="-184"/>
      <point x="244" y="-133" type="curve" smooth="yes"/>
      <point x="244" y="-81"/>
      <point x="202" y="-59"/>
      <point x="154" y="-59" type="curve" smooth="yes"/>
      <point x="104" y="-59"/>
      <point x="67" y="-81"/>
      <point x="67" y="-133" type="curve" smooth="yes"/>
      <point x="67" y="-184"/>
      <point x="104" y="-208"/>
    </contour>
  </outline>
</glyph>
<glyph name="uni1D24" format="2">
  <advance width="419"/>
  <unicode hex="1D24"/>
  <anchor x="210" y="0" name="bottom"/>
  <anchor x="210" y="536" name="top"/>
  <outline>
    <contour>
      <point x="217" y="-10" type="curve" smooth="yes"/>
      <point x="358" y="-10"/>
      <point x="399" y="39"/>
      <point x="399" y="105" type="curve" smooth="yes"/>
      <point x="399" y="160"/>
      <point x="360" y="175"/>
      <point x="312" y="175" type="curve"/>
      <point x="312" y="88"/>
      <point x="271" y="54"/>
      <point x="215" y="54" type="curve" smooth="yes"/>
      <point x="161" y="54"/>
      <point x="142" y="73"/>
      <point x="142" y="109" type="curve" smooth="yes"/>
      <point x="142" y="142"/>
      <point x="163" y="146"/>
      <point x="206" y="167" type="curve"/>
      <point x="206" y="207" type="line"/>
      <point x="338" y="267"/>
      <point x="394" y="282"/>
      <point x="394" y="395" type="curve" smooth="yes"/>
      <point x="394" y="506"/>
      <point x="316" y="549"/>
      <point x="198" y="549" type="curve" smooth="yes"/>
      <point x="84" y="549"/>
      <point x="40" y="501"/>
      <point x="40" y="453" type="curve" smooth="yes"/>
      <point x="40" y="408"/>
      <point x="68" y="390"/>
      <point x="131" y="390" type="curve"/>
      <point x="131" y="456"/>
      <point x="167" y="486"/>
      <point x="212" y="486" type="curve" smooth="yes"/>
      <point x="246" y="486"/>
      <point x="271" y="476"/>
      <point x="271" y="440" type="curve" smooth="yes"/>
      <point x="271" y="410"/>
      <point x="256" y="392"/>
      <point x="206" y="369" type="curve"/>
      <point x="206" y="329" type="line"/>
      <point x="84" y="280"/>
      <point x="21" y="244"/>
      <point x="21" y="156" type="curve" smooth="yes"/>
      <point x="21" y="50"/>
      <point x="87" y="-10"/>
    </contour>
  </outline>
</glyph>
<glyph name="uni1FC1" format="2">
  <advance width="225"/>
  <unicode hex="1FC1"/>
  <anchor x="114" y="536" name="_top"/>
  <outline>
    <contour>
      <point x="-36" y="758" type="curve"/>
      <point x="21" y="758" type="line"/>
      <point x="21" y="780"/>
      <point x="32" y="805"/>
      <point x="51" y="805" type="curve" smooth="yes"/>
      <point x="82" y="805"/>
      <point x="119" y="762"/>
      <point x="169" y="762" type="curve" smooth="yes"/>
      <point x="225" y="762"/>
      <point x="259" y="806"/>
      <point x="263" y="881" type="curve"/>
      <point x="205" y="881" type="line"/>
      <point x="203" y="857"/>
      <point x="192" y="833"/>
      <point x="174" y="833" type="curve" smooth="yes"/>
      <point x="147" y="833"/>
      <point x="111" y="878"/>
      <point x="62" y="878" type="curve" smooth="yes"/>
      <point x="5" y="878"/>
      <point x="-32" y="832"/>
    </contour>
    <contour>
      <point x="22" y="597" type="curve" smooth="yes"/>
      <point x="50" y="597"/>
      <point x="77" y="615"/>
      <point x="77" y="661" type="curve" smooth="yes"/>
      <point x="77" y="707"/>
      <point x="50" y="724"/>
      <point x="22" y="724" type="curve" smooth="yes"/>
      <point x="-5" y="724"/>
      <point x="-32" y="707"/>
      <point x="-32" y="661" type="curve" smooth="yes"/>
      <point x="-32" y="615"/>
      <point x="-5" y="597"/>
    </contour>
    <contour>
      <point x="204" y="597" type="curve" smooth="yes"/>
      <point x="229" y="597"/>
      <point x="258" y="615"/>
      <point x="258" y="661" type="curve" smooth="yes"/>
      <point x="258" y="707"/>
      <point x="229" y="724"/>
      <point x="204" y="724" type="curve" smooth="yes"/>
      <point x="174" y="724"/>
      <point x="147" y="707"/>
      <point x="147" y="661" type="curve" smooth="yes"/>
      <point x="147" y="615"/>
      <point x="174" y="597"/>
    </contour>
  </outline>
</glyph>
<glyph name="uni1FDF" format="2">
  <advance width="333"/>
  <unicode hex="1FDF"/>
  <anchor x="174" y="536" name="_top"/>
  <anchor x="174" y="865" name="top"/>
  <outline>
    <contour>
      <point x="23.499" y="742" type="curve"/>
      <point x="72.316" y="742" type="line"/>
      <point x="74" y="775"/>
      <point x="82" y="795"/>
      <point x="104" y="795" type="curve" smooth="yes"/>
      <point x="136.363" y="795"/>
      <point x="173.029" y="732"/>
      <point x="235" y="732" type="curve" smooth="yes"/>
      <point x="291.434" y="732"/>
      <point x="321.236" y="773.665"/>
      <point x="324.776" y="855" type="curve"/>
      <point x="274.712" y="855" type="line"/>
      <point x="273" y="822"/>
      <point x="260" y="802"/>
      <point x="243" y="802" type="curve" smooth="yes"/>
      <point x="210.734" y="802"/>
      <point x="175.068" y="865"/>
      <point x="113" y="865" type="curve" smooth="yes"/>
      <point x="55.525" y="865"/>
      <point x="25.18" y="822.608"/>
    </contour>
    <contour>
      <point x="229" y="562.864" type="curve"/>
      <point x="229" y="594" type="line"/>
      <point x="197" y="593"/>
      <point x="181" y="612"/>
      <point x="181" y="623" type="curve" smooth="yes"/>
      <point x="181" y="644"/>
      <point x="219" y="634.195"/>
      <point x="219" y="682" type="curve" smooth="yes"/>
      <point x="219" y="711.705"/>
      <point x="204.342" y="726"/>
      <point x="174" y="726" type="curve" smooth="yes"/>
      <point x="138.552" y="726"/>
      <point x="114" y="697.514"/>
      <point x="114" y="657" type="curve" smooth="yes"/>
      <point x="114" y="598.142"/>
      <point x="158.549" y="561.377"/>
    </contour>
  </outline>
</glyph>
<glyph name="uni1FEF" format="2">
  <advance width="683"/>
  <unicode hex="1FEF"/>
  <anchor x="353" y="536" name="_top"/>
  <anchor x="353" y="760" name="top"/>
  <outline>
    <contour>
      <point x="352" y="586" type="curve"/>
      <point x="433" y="586" type="line"/>
      <point x="433" y="602" type="line"/>
      <point x="422" y="647"/>
      <point x="416" y="710"/>
      <point x="415" y="760" type="curve"/>
      <point x="272" y="760" type="line"/>
      <point x="272" y="748" type="line"/>
      <point x="294" y="699"/>
      <point x="318" y="635"/>
    </contour>
  </outline>
</glyph>
<glyph name="uni1FFD" format="2">
  <advance width="683"/>
  <unicode hex="1FFD"/>
  <anchor x="332" y="536" name="_top"/>
  <anchor x="332" y="760" name="top"/>
  <outline>
    <contour>
      <point x="251" y="586" type="line"/>
      <point x="333" y="586" type="line"/>
      <point x="372" y="642"/>
      <point x="388" y="693"/>
      <point x="412" y="748" type="curve"/>
      <point x="412" y="760" type="line"/>
      <point x="269" y="760" type="line"/>
      <point x="267" y="710"/>
      <point x="262" y="653"/>
      <point x="251" y="602" type="curve"/>
    </contour>
  </outline>
</glyph>
<glyph name="plussuperior" format="2">
  <advance width="338"/>
  <unicode hex="207A"/>
  <outline>
    <contour>
      <point x="133" y="306" type="line"/>
      <point x="206" y="306" type="line"/>
      <point x="206" y="447" type="line"/>
      <point x="319" y="447" type="line"/>
      <point x="319" y="516" type="line"/>
      <point x="206" y="516" type="line"/>
      <point x="206" y="657" type="line"/>
      <point x="133" y="657" type="line"/>
      <point x="133" y="516" type="line"/>
      <point x="20" y="516" type="line"/>
      <point x="20" y="447" type="line"/>
      <point x="133" y="447" type="line"/>
    </contour>
  </outline>
</glyph>
<glyph name="equalsuperior" format="2">
  <advance width="338"/>
  <unicode hex="207C"/>
  <outline>
    <contour>
      <point x="20" y="522" type="line"/>
      <point x="319" y="522" type="line"/>
      <point x="319" y="591" type="line"/>
      <point x="20" y="591" type="line"/>
    </contour>
    <contour>
      <point x="20" y="371" type="line"/>
      <point x="319" y="371" type="line"/>
      <point x="319" y="440" type="line"/>
      <point x="20" y="440" type="line"/>
    </contour>
  </outline>
</glyph>
<glyph name="parenleftsuperior" format="2">
  <advance width="208"/>
  <unicode hex="207D"/>
  <outline>
    <contour>
      <point x="202" y="196" type="curve"/>
      <point x="202" y="240" type="line"/>
      <point x="124" y="303"/>
      <point x="112" y="369"/>
      <point x="112" y="491" type="curve" smooth="yes"/>
      <point x="112" y="612"/>
      <point x="124" y="682"/>
      <point x="202" y="746" type="curve"/>
      <point x="202" y="788" type="line"/>
      <point x="81" y="737"/>
      <point x="13" y="674"/>
      <point x="13" y="491" type="curve" smooth="yes"/>
      <point x="13" y="302"/>
      <point x="73" y="247"/>
    </contour>
  </outline>
</glyph>
<glyph name="uni20A9" format="2">
  <advance width="902"/>
  <unicode hex="20A9"/>
  <outline>
    <contour>
      <point x="204" y="0" type="line"/>
      <point x="337" y="0" type="line"/>
      <point x="411" y="293" type="line"/>
      <point x="507" y="293" type="line"/>
      <point x="572" y="0" type="line"/>
      <point x="706" y="0" type="line"/>
      <point x="768" y="293" type="line"/>
      <point x="895" y="293" type="line"/>
      <point x="895" y="361" type="line"/>
      <point x="783" y="361" type="line"/>
      <point x="793" y="410" type="line"/>
      <point x="895" y="410" type="line"/>
      <point x="895" y="478" type="line"/>
      <point x="807" y="478" type="line"/>
      <point x="829" y="580" type="line" smooth="yes"/>
      <point x="843" y="646"/>
      <point x="860" y="658"/>
      <point x="892" y="658" type="curve" smooth="yes"/>
      <point x="908" y="658" type="line"/>
      <point x="908" y="714" type="line"/>
      <point x="679" y="714" type="line"/>
      <point x="679" y="658" type="line"/>
      <point x="699" y="658" type="line" smooth="yes"/>
      <point x="735" y="658"/>
      <point x="751" y="647"/>
      <point x="751" y="615" type="curve" smooth="yes"/>
      <point x="751" y="603"/>
      <point x="747" y="574"/>
      <point x="744" y="557" type="curve" smooth="yes"/>
      <point x="728" y="478" type="line"/>
      <point x="602" y="478" type="line"/>
      <point x="548" y="707" type="line"/>
      <point x="447" y="707" type="line"/>
      <point x="388" y="478" type="line"/>
      <point x="256" y="478" type="line"/>
      <point x="242" y="551" type="line" smooth="yes"/>
      <point x="238" y="571"/>
      <point x="233" y="602"/>
      <point x="233" y="613" type="curve" smooth="yes"/>
      <point x="233" y="644"/>
      <point x="249" y="658"/>
      <point x="282" y="658" type="curve" smooth="yes"/>
      <point x="302" y="658" type="line"/>
      <point x="302" y="714" type="line"/>
      <point x="-5" y="714" type="line"/>
      <point x="-5" y="658" type="line"/>
      <point x="6" y="658" type="line" smooth="yes"/>
      <point x="38" y="658"/>
      <point x="55" y="647"/>
      <point x="65" y="605" type="curve" smooth="yes"/>
      <point x="94" y="478" type="line"/>
      <point x="7" y="478" type="line"/>
      <point x="7" y="410" type="line"/>
      <point x="110" y="410" type="line"/>
      <point x="121" y="361" type="line"/>
      <point x="7" y="361" type="line"/>
      <point x="7" y="293" type="line"/>
      <point x="137" y="293" type="line"/>
    </contour>
    <contour>
      <point x="313" y="187" type="line"/>
      <point x="292" y="293" type="line"/>
      <point x="340" y="293" type="line"/>
    </contour>
    <contour>
      <point x="279" y="361" type="line"/>
      <point x="270" y="410" type="line"/>
      <point x="370" y="410" type="line"/>
      <point x="358" y="361" type="line"/>
    </contour>
    <contour>
      <point x="671" y="185" type="line"/>
      <point x="646" y="293" type="line"/>
      <point x="692" y="293" type="line"/>
    </contour>
    <contour>
      <point x="428" y="361" type="line"/>
      <point x="440" y="410" type="line"/>
      <point x="481" y="410" type="line"/>
      <point x="492" y="361" type="line"/>
    </contour>
    <contour>
      <point x="452" y="478" type="line"/>
      <point x="462" y="518" type="line"/>
      <point x="470" y="478" type="line"/>
    </contour>
    <contour>
      <point x="630" y="361" type="line"/>
      <point x="618" y="410" type="line"/>
      <point x="715" y="410" type="line"/>
      <point x="706" y="361" type="line"/>
    </contour>
  </outline>
</glyph>
<glyph name="uniA670" format="2">
  <unicode hex="A670"/>
  <outline>
    <contour>
      <point x="186" y="451" type="line"/>
      <point x="234" y="509" type="line"/>
      <point x="282" y="451" type="line"/>
      <point x="314" y="489" type="line"/>
      <point x="266" y="547" type="line"/>
      <point x="314" y="606" type="line"/>
      <point x="283" y="643" type="line"/>
      <point x="234" y="585" type="line"/>
      <point x="186" y="643" type="line"/>
      <point x="154" y="606" type="line"/>
      <point x="204" y="547" type="line"/>
      <point x="154" y="489" type="line"/>
    </contour>
    <contour>
      <point x="-283" y="-105" type="line"/>
      <point x="-234" y="-47" type="line"/>
      <point x="-186" y="-105" type="line"/>
      <point x="-155" y="-67" type="line"/>
      <point x="-203" y="-9" type="line"/>
      <point x="-155" y="50" type="line"/>
      <point x="-186" y="87" type="line"/>
      <point x="-234" y="29" type="line"/>
      <point x="-283" y="87" type="line"/>
      <point x="-314" y="50" type="line"/>
      <point x="-265" y="-9" type="line"/>
      <point x="-314" y="-67" type="line"/>
    </contour>
    <contour>
      <point x="-267" y="174" type="line"/>
      <point x="-236" y="212" type="line"/>
      <point x="-283" y="270" type="line"/>
      <point x="-236" y="328" type="line"/>
      <point x="-267" y="366" type="line"/>
      <point x="-315" y="308" type="line"/>
      <point x="-364" y="366" type="line"/>
      <point x="-395" y="329" type="line"/>
      <point x="-347" y="270" type="line"/>
      <point x="-395" y="213" type="line"/>
      <point x="-364" y="175" type="line"/>
      <point x="-315" y="234" type="line"/>
    </contour>
    <contour>
      <point x="-49" y="-203" type="line"/>
      <point x="0" y="-145" type="line"/>
      <point x="48" y="-203" type="line"/>
      <point x="80" y="-165" type="line"/>
      <point x="31" y="-107" type="line"/>
      <point x="80" y="-48" type="line"/>
      <point x="49" y="-11" type="line"/>
      <point x="0" y="-69" type="line"/>
      <point x="-49" y="-11" type="line"/>
      <point x="-80" y="-48" type="line"/>
      <point x="-31" y="-107" type="line"/>
      <point x="-80" y="-165" type="line"/>
    </contour>
    <contour>
      <point x="-283" y="451" type="line"/>
      <point x="-234" y="509" type="line"/>
      <point x="-186" y="451" type="line"/>
      <point x="-155" y="489" type="line"/>
      <point x="-203" y="547" type="line"/>
      <point x="-155" y="606" type="line"/>
      <point x="-186" y="643" type="line"/>
      <point x="-234" y="585" type="line"/>
      <point x="-283" y="643" type="line"/>
      <point x="-314" y="606" type="line"/>
      <point x="-265" y="547" type="line"/>
      <point x="-314" y="489" type="line"/>
    </contour>
    <contour>
      <point x="186" y="-105" type="line"/>
      <point x="234" y="-47" type="line"/>
      <point x="282" y="-105" type="line"/>
      <point x="314" y="-67" type="line"/>
      <point x="266" y="-9" type="line"/>
      <point x="314" y="50" type="line"/>
      <point x="283" y="87" type="line"/>
      <point x="234" y="29" type="line"/>
      <point x="186" y="87" type="line"/>
      <point x="154" y="50" type="line"/>
      <point x="204" y="-9" type="line"/>
      <point x="154" y="-67" type="line"/>
    </contour>
    <contour>
      <point x="264" y="174" type="line"/>
      <point x="314" y="233" type="line"/>
      <point x="362" y="174" type="line"/>
      <point x="394" y="212" type="line"/>
      <point x="346" y="270" type="line"/>
      <point x="394" y="328" type="line"/>
      <point x="362" y="366" type="line"/>
      <point x="314" y="308" type="line"/>
      <point x="264" y="366" type="line"/>
      <point x="234" y="329" type="line"/>
      <point x="282" y="270" type="line"/>
      <point x="234" y="212" type="line"/>
    </contour>
    <contour>
      <point x="-49" y="552" type="line"/>
      <point x="0" y="610" type="line"/>
      <point x="48" y="552" type="line"/>
      <point x="80" y="590" type="line"/>
      <point x="31" y="648" type="line"/>
      <point x="80" y="707" type="line"/>
      <point x="49" y="744" type="line"/>
      <point x="0" y="686" type="line"/>
      <point x="-49" y="744" type="line"/>
      <point x="-80" y="707" type="line"/>
      <point x="-31" y="648" type="line"/>
      <point x="-80" y="590" type="line"/>
    </contour>
  </outline>
</glyph>
<glyph name="uniA671" format="2">
  <unicode hex="A671"/>
  <outline>
    <contour>
      <point x="-241" y="579" type="line"/>
      <point x="-192" y="579" type="line"/>
      <point x="-192" y="678" type="line"/>
      <point x="191" y="678" type="line"/>
      <point x="191" y="579" type="line"/>
      <point x="240" y="579" type="line"/>
      <point x="240" y="756" type="line"/>
      <point x="-241" y="756" type="line"/>
    </contour>
    <contour>
      <point x="-241" y="-220" type="line"/>
      <point x="240" y="-220" type="line"/>
      <point x="240" y="-43" type="line"/>
      <point x="191" y="-43" type="line"/>
      <point x="191" y="-142" type="line"/>
      <point x="-192" y="-142" type="line"/>
      <point x="-192" y="-43" type="line"/>
      <point x="-241" y="-43" type="line"/>
    </contour>
  </outline>
</glyph>
<glyph name="uniA672" format="2">
  <unicode hex="A672"/>
  <outline>
    <contour>
      <point x="-20" y="497" type="line"/>
      <point x="20" y="497" type="line"/>
      <point x="20" y="594" type="line"/>
      <point x="110" y="594" type="line"/>
      <point x="110" y="635" type="line"/>
      <point x="20" y="635" type="line"/>
      <point x="20" y="729" type="line"/>
      <point x="-20" y="729" type="line"/>
      <point x="-20" y="635" type="line"/>
      <point x="-109" y="635" type="line"/>
      <point x="-109" y="594" type="line"/>
      <point x="-20" y="594" type="line"/>
    </contour>
    <contour>
      <point x="-142" y="-197" type="line"/>
      <point x="-102" y="-197" type="line"/>
      <point x="-102" y="36" type="line"/>
      <point x="-142" y="36" type="line"/>
    </contour>
    <contour>
      <point x="-354" y="57" type="line"/>
      <point x="-151" y="57" type="line"/>
      <point x="-151" y="98" type="line"/>
      <point x="-354" y="98" type="line"/>
    </contour>
    <contour>
      <point x="-20" y="-197" type="line"/>
      <point x="20" y="-197" type="line"/>
      <point x="20" y="36" type="line"/>
      <point x="-20" y="36" type="line"/>
    </contour>
    <contour>
      <point x="-354" y="252" type="line"/>
      <point x="-151" y="252" type="line"/>
      <point x="-151" y="293" type="line"/>
      <point x="-354" y="293" type="line"/>
    </contour>
    <contour>
      <point x="102" y="-197" type="line"/>
      <point x="143" y="-197" type="line"/>
      <point x="143" y="36" type="line"/>
      <point x="102" y="36" type="line"/>
    </contour>
    <contour>
      <point x="-354" y="447" type="line"/>
      <point x="-151" y="447" type="line"/>
      <point x="-151" y="488" type="line"/>
      <point x="-354" y="488" type="line"/>
    </contour>
    <contour>
      <point x="151" y="57" type="line"/>
      <point x="354" y="57" type="line"/>
      <point x="354" y="98" type="line"/>
      <point x="151" y="98" type="line"/>
    </contour>
    <contour>
      <point x="151" y="252" type="line"/>
      <point x="354" y="252" type="line"/>
      <point x="354" y="293" type="line"/>
      <point x="151" y="293" type="line"/>
    </contour>
    <contour>
      <point x="151" y="447" type="line"/>
      <point x="354" y="447" type="line"/>
      <point x="354" y="488" type="line"/>
      <point x="151" y="488" type="line"/>
    </contour>
  </outline>
</glyph>
<glyph name="uniA764" format="2">
  <advance width="553"/>
  <unicode hex="A764"/>
  <outline>
    <contour>
      <point x="18" y="0" type="line"/>
      <point x="339" y="0" type="line"/>
      <point x="339" y="56" type="line"/>
      <point x="301" y="56" type="line" smooth="yes"/>
      <point x="277" y="56"/>
      <point x="262" y="74"/>
      <point x="262" y="112" type="curve" smooth="yes"/>
      <point x="262" y="144" type="line"/>
      <point x="271" y="144" type="line" smooth="yes"/>
      <point x="479" y="144"/>
      <point x="534" y="224"/>
      <point x="534" y="328" type="curve" smooth="yes"/>
      <point x="534" y="443"/>
      <point x="472" y="496"/>
      <point x="289" y="496" type="curve" smooth="yes"/>
      <point x="262" y="496" type="line"/>
      <point x="262" y="550" type="line"/>
      <point x="332" y="550" type="line"/>
      <point x="332" y="609" type="line"/>
      <point x="262" y="609" type="line"/>
      <point x="263" y="641"/>
      <point x="275" y="658"/>
      <point x="301" y="658" type="curve" smooth="yes"/>
      <point x="339" y="658" type="line"/>
      <point x="339" y="714" type="line"/>
      <point x="18" y="714" type="line"/>
      <point x="18" y="658" type="line"/>
      <point x="53" y="658" type="line" smooth="yes"/>
      <point x="76" y="658"/>
      <point x="93" y="644"/>
      <point x="94" y="609" type="curve"/>
      <point x="18" y="609" type="line"/>
      <point x="18" y="550" type="line"/>
      <point x="94" y="550" type="line"/>
      <point x="94" y="109" type="line" smooth="yes"/>
      <point x="94" y="71"/>
      <point x="76" y="56"/>
      <point x="53" y="56" type="curve" smooth="yes"/>
      <point x="18" y="56" type="line"/>
    </contour>
    <contour>
      <point x="262" y="205" type="line"/>
      <point x="262" y="433" type="line"/>
      <point x="275" y="433" type="line" smooth="yes"/>
      <point x="334" y="433"/>
      <point x="356" y="397"/>
      <point x="356" y="324" type="curve" smooth="yes"/>
      <point x="356" y="238"/>
      <point x="331" y="205"/>
      <point x="273" y="205" type="curve" smooth="yes"/>
    </contour>
  </outline>
</glyph>
<glyph name="uniA765" format="2">
  <advance width="557"/>
  <unicode hex="A765"/>
  <anchor x="279" y="-240" name="bottom"/>
  <anchor x="279" y="760" name="top"/>
  <outline>
    <contour>
      <point x="13" y="576" type="line"/>
      <point x="332" y="576" type="line"/>
      <point x="332" y="636" type="line"/>
      <point x="13" y="636" type="line"/>
    </contour>
    <component base="thorn"/>
  </outline>
</glyph>
<glyph name="uniA7AE" format="2">
  <advance width="508"/>
  <unicode hex="A7AE"/>
  <outline>
    <contour>
      <point x="24" y="0" type="line"/>
      <point x="483" y="0" type="line"/>
      <point x="488" y="189" type="line"/>
      <point x="418" y="189" type="line"/>
      <point x="414" y="148" type="line" smooth="yes"/>
      <point x="408" y="85"/>
      <point x="398" y="67"/>
      <point x="352" y="67" type="curve" smooth="yes"/>
      <point x="335" y="67" type="line"/>
      <point x="335" y="647" type="line"/>
      <point x="354" y="647" type="line" smooth="yes"/>
      <point x="396" y="647"/>
      <point x="408" y="629"/>
      <point x="414" y="566" type="curve" smooth="yes"/>
      <point x="418" y="525" type="line"/>
      <point x="488" y="525" type="line"/>
      <point x="483" y="714" type="line"/>
      <point x="24" y="714" type="line"/>
      <point x="20" y="525" type="line"/>
      <point x="90" y="525" type="line"/>
      <point x="94" y="566" type="line" smooth="yes"/>
      <point x="100" y="629"/>
      <point x="110" y="647"/>
      <point x="156" y="647" type="curve" smooth="yes"/>
      <point x="172" y="647" type="line"/>
      <point x="172" y="67" type="line"/>
      <point x="154" y="67" type="line" smooth="yes"/>
      <point x="111" y="67"/>
      <point x="100" y="85"/>
      <point x="94" y="148" type="curve" smooth="yes"/>
      <point x="90" y="189" type="line"/>
      <point x="20" y="189" type="line"/>
    </contour>
  </outline>
</glyph>
<glyph name="uniA7FF" format="2">
  <advance width="825"/>
  <unicode hex="A7FF"/>
  <outline>
    <contour>
      <point x="0" y="0" type="line"/>
      <point x="201" y="0" type="line"/>
      <point x="201" y="56" type="line"/>
      <point x="195" y="56" type="line" smooth="yes"/>
      <point x="158" y="56"/>
      <point x="140" y="70"/>
      <point x="140" y="103" type="curve" smooth="yes"/>
      <point x="140" y="116"/>
      <point x="143" y="138"/>
      <point x="148" y="159" type="curve" smooth="yes"/>
      <point x="174" y="280" type="line" smooth="yes"/>
      <point x="182" y="316"/>
      <point x="186" y="343"/>
      <point x="189" y="373" type="curve"/>
      <point x="193" y="373" type="line"/>
      <point x="195" y="348"/>
      <point x="198" y="317"/>
      <point x="205" y="290" type="curve" smooth="yes"/>
      <point x="273" y="0" type="line"/>
      <point x="376" y="0" type="line"/>
      <point x="458" y="367" type="line"/>
      <point x="542" y="0" type="line"/>
      <point x="643" y="0" type="line"/>
      <point x="751" y="402" type="line" smooth="yes"/>
      <point x="768" y="466"/>
      <point x="781" y="480"/>
      <point x="814" y="480" type="curve" smooth="yes"/>
      <point x="825" y="480" type="line"/>
      <point x="825" y="536" type="line"/>
      <point x="624" y="536" type="line"/>
      <point x="624" y="480" type="line"/>
      <point x="630" y="480" type="line" smooth="yes"/>
      <point x="667" y="480"/>
      <point x="685" y="465"/>
      <point x="685" y="431" type="curve" smooth="yes"/>
      <point x="685" y="420"/>
      <point x="682" y="398"/>
      <point x="678" y="381" type="curve" smooth="yes"/>
      <point x="651" y="255" type="line" smooth="yes"/>
      <point x="643" y="219"/>
      <point x="640" y="192"/>
      <point x="636" y="161" type="curve"/>
      <point x="632" y="161" type="line"/>
      <point x="630" y="184"/>
      <point x="627" y="224"/>
      <point x="620" y="252" type="curve" smooth="yes"/>
      <point x="547" y="536" type="line"/>
      <point x="450" y="536" type="line"/>
      <point x="379" y="253" type="line" smooth="yes"/>
      <point x="371" y="222"/>
      <point x="367" y="192"/>
      <point x="363" y="161" type="curve"/>
      <point x="360" y="161" type="line"/>
      <point x="358" y="183"/>
      <point x="354" y="220"/>
      <point x="348" y="249" type="curve" smooth="yes"/>
      <point x="283" y="536" type="line"/>
      <point x="182" y="536" type="line"/>
      <point x="73" y="134" type="line" smooth="yes"/>
      <point x="56" y="71"/>
      <point x="44" y="56"/>
      <point x="11" y="56" type="curve" smooth="yes"/>
      <point x="0" y="56" type="line"/>
    </contour>
  </outline>
</glyph>
<glyph name="uniAB41" format="2">
  <advance width="800"/>
  <unicode hex="AB41"/>
  <anchor x="403" y="535" name="bottom"/>
  <anchor x="403" y="-1" name="top"/>
  <outline>
    <contour>
      <point x="362" y="-66" type="line"/>
      <point x="426" y="-66" type="line"/>
      <point x="719" y="596" type="line"/>
      <point x="654" y="596" type="line"/>
    </contour>
    <component base="oe" xScale="-1" yScale="-1" xOffset="803" yOffset="535"/>
  </outline>
</glyph>
<glyph name="uniAB42" format="2">
  <advance width="800"/>
  <unicode hex="AB42"/>
  <anchor x="403" y="535" name="bottom"/>
  <anchor x="403" y="-1" name="top"/>
  <outline>
    <contour>
      <point x="421" y="237" type="line"/>
      <point x="646" y="237" type="line"/>
      <point x="646" y="303" type="line"/>
      <point x="421" y="303" type="line"/>
    </contour>
    <component base="oe" xScale="-1" yScale="-1" xOffset="803" yOffset="535"/>
  </outline>
</glyph>
<glyph name="uniAB60" format="2">
  <advance width="832"/>
  <unicode hex="AB60"/>
  <outline>
    <contour>
      <point x="331" y="0" type="line"/>
      <point x="627" y="0" type="line" smooth="yes"/>
      <point x="761" y="0"/>
      <point x="825" y="63"/>
      <point x="825" y="159" type="curve" smooth="yes"/>
      <point x="825" y="283"/>
      <point x="737" y="307"/>
      <point x="634" y="307" type="curve" smooth="yes"/>
      <point x="555" y="307" type="line"/>
      <point x="555" y="409" type="line" smooth="yes"/>
      <point x="555" y="453"/>
      <point x="570" y="475"/>
      <point x="615" y="475" type="curve" smooth="yes"/>
      <point x="626" y="475" type="line"/>
      <point x="626" y="536" type="line"/>
      <point x="331" y="536" type="line"/>
      <point x="331" y="480" type="line"/>
      <point x="339" y="480" type="line" smooth="yes"/>
      <point x="380" y="480"/>
      <point x="392" y="459"/>
      <point x="392" y="408" type="curve" smooth="yes"/>
      <point x="392" y="119" type="line" smooth="yes"/>
      <point x="392" y="75"/>
      <point x="382" y="56"/>
      <point x="339" y="56" type="curve" smooth="yes"/>
      <point x="331" y="56" type="line"/>
    </contour>
    <contour>
      <point x="12" y="0" type="line"/>
      <point x="297" y="0" type="line"/>
      <point x="297" y="56" type="line"/>
      <point x="287" y="56" type="line" smooth="yes"/>
      <point x="256" y="56"/>
      <point x="235" y="73"/>
      <point x="235" y="121" type="curve" smooth="yes"/>
      <point x="235" y="415" type="line" smooth="yes"/>
      <point x="235" y="465"/>
      <point x="256" y="480"/>
      <point x="287" y="480" type="curve" smooth="yes"/>
      <point x="297" y="480" type="line"/>
      <point x="297" y="536" type="line"/>
      <point x="12" y="536" type="line"/>
      <point x="12" y="480" type="line"/>
      <point x="21" y="480" type="line" smooth="yes"/>
      <point x="52" y="480"/>
      <point x="72" y="466"/>
      <point x="72" y="416" type="curve" smooth="yes"/>
      <point x="72" y="121" type="line" smooth="yes"/>
      <point x="72" y="69"/>
      <point x="54" y="56"/>
      <point x="21" y="56" type="curve" smooth="yes"/>
      <point x="12" y="56" type="line"/>
    </contour>
    <contour>
      <point x="554" y="61" type="line"/>
      <point x="554" y="245" type="line"/>
      <point x="582" y="245" type="line" smooth="yes"/>
      <point x="626" y="245"/>
      <point x="658" y="222"/>
      <point x="658" y="160" type="curve" smooth="yes"/>
      <point x="658" y="89"/>
      <point x="632" y="61"/>
      <point x="583" y="61" type="curve" smooth="yes"/>
    </contour>
  </outline>
</glyph>
<glyph name="uniFE20" format="2">
  <unicode hex="FE20"/>
  <anchor x="2" y="536" name="_top"/>
  <outline>
    <contour>
      <point x="-322" y="593" type="curve"/>
      <point x="-254" y="593" type="line"/>
      <point x="-191" y="684"/>
      <point x="-129" y="714"/>
      <point x="2" y="714" type="curve"/>
      <point x="2" y="800" type="line"/>
      <point x="-8" y="800" type="line" smooth="yes"/>
      <point x="-154" y="800"/>
      <point x="-276" y="730"/>
    </contour>
  </outline>
</glyph>
<glyph name="uniFE21" format="2">
  <unicode hex="FE21"/>
  <anchor x="-2" y="536" name="_top"/>
  <outline>
    <contour>
      <point x="254" y="593" type="curve"/>
      <point x="322" y="593" type="line"/>
      <point x="276" y="730"/>
      <point x="154" y="800"/>
      <point x="8" y="800" type="curve" smooth="yes"/>
      <point x="-2" y="800" type="line"/>
      <point x="-2" y="714" type="line"/>
      <point x="128" y="714"/>
      <point x="192" y="684"/>
    </contour>
  </outline>
</glyph>
<glyph name="uniFE23" format="2">
  <unicode hex="FE23"/>
  <anchor x="-3" y="536" name="_top"/>
  <outline>
    <contour>
      <point x="157" y="597" type="curve" smooth="yes"/>
      <point x="268" y="597"/>
      <point x="303" y="670"/>
      <point x="320" y="746" type="curve"/>
      <point x="261" y="746" type="line"/>
      <point x="240" y="694"/>
      <point x="208" y="674"/>
      <point x="153" y="674" type="curve" smooth="yes"/>
      <point x="89" y="674"/>
      <point x="57" y="695"/>
      <point x="-3" y="713" type="curve"/>
      <point x="-3" y="627" type="line"/>
      <point x="47" y="612"/>
      <point x="105" y="597"/>
    </contour>
  </outline>
</glyph>
<glyph name="combiningconjoiningmacron" format="2">
  <unicode hex="FE26"/>
  <anchor x="-1" y="536" name="_top"/>
  <outline>
    <contour>
      <point x="-324" y="673" type="line"/>
      <point x="322" y="673" type="line"/>
      <point x="322" y="746" type="line"/>
      <point x="-324" y="746" type="line"/>
    </contour>
  </outline>
</glyph>
<glyph name="uniFE27" format="2">
  <unicode hex="FE27"/>
  <anchor x="0" y="0" name="_bottom"/>
  <anchor x="-169" y="536" name="braceleft"/>
  <outline>
    <contour>
      <point x="0" y="-214" type="curve"/>
      <point x="0" y="-140" type="line"/>
      <point x="-138" y="-140"/>
      <point x="-232" y="-104"/>
      <point x="-278" y="-26" type="curve"/>
      <point x="-338" y="-26" type="line"/>
      <point x="-272" y="-163"/>
      <point x="-162" y="-214"/>
    </contour>
  </outline>
</glyph>
<glyph name="uniFE28" format="2">
  <unicode hex="FE28"/>
  <anchor x="0" y="0" name="_bottom"/>
  <anchor x="169" y="536" name="braceleft"/>
  <outline>
    <contour>
      <point x="0" y="-214" type="line"/>
      <point x="158" y="-214"/>
      <point x="271" y="-165"/>
      <point x="338" y="-26" type="curve"/>
      <point x="278" y="-26" type="line"/>
      <point x="232" y="-103"/>
      <point x="139" y="-140"/>
      <point x="0" y="-140" type="curve"/>
    </contour>
  </outline>
</glyph>
<glyph name="uniFE29" format="2">
  <unicode hex="FE29"/>
  <anchor x="0" y="0" name="_bottom"/>
  <anchor x="-171" y="536" name="braceleft"/>
  <outline>
    <contour>
      <point x="-341" y="-203" type="curve"/>
      <point x="-288" y="-203" type="line"/>
      <point x="-274" y="-179"/>
      <point x="-255" y="-161"/>
      <point x="-236" y="-150" type="curve" smooth="yes"/>
      <point x="-217" y="-140"/>
      <point x="-201" y="-134"/>
      <point x="-184" y="-134" type="curve" smooth="yes"/>
      <point x="-145" y="-134"/>
      <point x="-91" y="-147"/>
      <point x="0" y="-174" type="curve"/>
      <point x="0" y="-90" type="line"/>
      <point x="-66" y="-70"/>
      <point x="-127" y="-60"/>
      <point x="-182" y="-60" type="curve" smooth="yes"/>
      <point x="-264" y="-60"/>
      <point x="-320" y="-113"/>
    </contour>
  </outline>
</glyph>
<glyph name="uniFE2A" format="2">
  <unicode hex="FE2A"/>
  <anchor x="0" y="0" name="_bottom"/>
  <anchor x="170" y="536" name="braceleft"/>
  <outline>
    <contour>
      <point x="184" y="-204" type="curve" smooth="yes"/>
      <point x="258" y="-204"/>
      <point x="317" y="-150"/>
      <point x="340" y="-59" type="curve"/>
      <point x="287" y="-59" type="line"/>
      <point x="270" y="-86"/>
      <point x="252" y="-104"/>
      <point x="235" y="-115" type="curve"/>
      <point x="218" y="-124"/>
      <point x="203" y="-128"/>
      <point x="184" y="-128" type="curve" smooth="yes"/>
      <point x="142" y="-128"/>
      <point x="89" y="-116"/>
      <point x="0" y="-90" type="curve"/>
      <point x="0" y="-172" type="line"/>
      <point x="64" y="-194"/>
      <point x="128" y="-204"/>
    </contour>
  </outline>
</glyph>
<glyph name="uniFE2D" format="2">
  <unicode hex="FE2D"/>
  <anchor x="-1" y="0" name="_bottom"/>
  <anchor x="-1" y="536" name="braceleft"/>
  <outline>
    <contour>
      <point x="-324" y="-208" type="line"/>
      <point x="322" y="-208" type="line"/>
      <point x="322" y="-135" type="line"/>
      <point x="-324" y="-135" type="line"/>
    </contour>
  </outline>
</glyph>
<glyph name="uniFE2E" format="2">
  <unicode hex="FE2E"/>
  <anchor x="-71" y="536" name="_top"/>
  <outline>
    <contour>
      <point x="-71" y="568" type="curve" smooth="yes"/>
      <point x="-43" y="568"/>
      <point x="-31" y="589"/>
      <point x="-28" y="616" type="curve"/>
      <point x="116" y="616" type="line"/>
      <point x="116" y="681" type="line"/>
      <point x="-70" y="681" type="line" smooth="yes"/>
      <point x="-102" y="681"/>
      <point x="-116" y="657"/>
      <point x="-116" y="622" type="curve" smooth="yes"/>
      <point x="-116" y="586"/>
      <point x="-104" y="568"/>
    </contour>
  </outline>
</glyph>
<glyph name="uniFE2F" format="2">
  <unicode hex="FE2F"/>
  <anchor x="71" y="536" name="_top"/>
  <outline>
    <contour>
      <point x="-116" y="616" type="line"/>
      <point x="70" y="616" type="line" smooth="yes"/>
      <point x="101" y="616"/>
      <point x="116" y="639"/>
      <point x="116" y="676" type="curve" smooth="yes"/>
      <point x="116" y="712"/>
      <point x="103" y="730"/>
      <point x="71" y="730" type="curve" smooth="yes"/>
      <point x="44" y="730"/>
      <point x="31" y="709"/>
      <point x="28" y="681" type="curve"/>
      <point x="-116" y="681" type="line"/>
    </contour>
  </outline>
</glyph>
